<svg viewBox="0 0 24 24" fill="none" xmlns="http://www.w3.org/2000/svg">
    <path opacity=".66"
          d="M22.5 9v9a1.5 1.5 0 0 1-1.5 1.5h-2.5v-2h-13v2H3A1.5 1.5 0 0 1 1.5 18V9A1.5 1.5 0 0 1 3 7.5h2.5v2h13v-2H21A1.5 1.5 0 0 1 22.5 9z"
          fill="currentColor" fill-opacity=".01" stroke="currentColor" stroke-miterlimit="10"/>
    <path opacity=".33" d="M22 15v3a1 1 0 0 1-1 1h-2v-2H5v2H3a1 1 0 0 1-1-1v-3h20z" fill="currentColor"/>
    <path opacity=".5" d="M19.5 13.5a1 1 0 1 0 0-2 1 1 0 0 0 0 2z" fill="currentColor"/>
    <path d="M5.5 9V2.5h13V9m0 9v3.5h-13V18" stroke="currentColor"/>
</svg>
